<mxfile host="Electron" agent="Mozilla/5.0 (Windows NT 10.0; Win64; x64) AppleWebKit/537.36 (KHTML, like Gecko) draw.io/24.7.8 Chrome/128.0.6613.36 Electron/32.0.1 Safari/537.36" version="24.7.8">
  <diagram name="1" id="uhHmy6XL0mg2d0_pBVfR">
    <mxGraphModel dx="2188" dy="614" grid="1" gridSize="10" guides="1" tooltips="1" connect="1" arrows="1" fold="1" page="1" pageScale="1" pageWidth="850" pageHeight="1100" math="0" shadow="0">
      <root>
        <mxCell id="0" />
        <mxCell id="1" parent="0" />
        <mxCell id="vIC79qj0zHftMQvDJgJ9-84" value="" style="edgeStyle=orthogonalEdgeStyle;rounded=0;orthogonalLoop=1;jettySize=auto;html=1;" edge="1" parent="1" source="vIC79qj0zHftMQvDJgJ9-2" target="vIC79qj0zHftMQvDJgJ9-58">
          <mxGeometry relative="1" as="geometry" />
        </mxCell>
        <mxCell id="vIC79qj0zHftMQvDJgJ9-2" value="Start" style="ellipse;whiteSpace=wrap;html=1;" vertex="1" parent="1">
          <mxGeometry x="133.91" y="380" width="90" height="50" as="geometry" />
        </mxCell>
        <mxCell id="vIC79qj0zHftMQvDJgJ9-11" value="" style="edgeStyle=orthogonalEdgeStyle;rounded=0;orthogonalLoop=1;jettySize=auto;html=1;" edge="1" parent="1">
          <mxGeometry relative="1" as="geometry">
            <mxPoint x="182.31" y="640" as="sourcePoint" />
            <mxPoint x="182.31" y="695.0049758860904" as="targetPoint" />
          </mxGeometry>
        </mxCell>
        <mxCell id="vIC79qj0zHftMQvDJgJ9-23" style="edgeStyle=orthogonalEdgeStyle;rounded=0;orthogonalLoop=1;jettySize=auto;html=1;" edge="1" parent="1">
          <mxGeometry relative="1" as="geometry">
            <mxPoint x="350" y="825" as="targetPoint" />
            <mxPoint x="260.30999999999995" y="750" as="sourcePoint" />
          </mxGeometry>
        </mxCell>
        <mxCell id="vIC79qj0zHftMQvDJgJ9-14" value="Yes" style="text;html=1;align=center;verticalAlign=middle;whiteSpace=wrap;rounded=0;" vertex="1" parent="1">
          <mxGeometry x="280" y="710" width="60" height="30" as="geometry" />
        </mxCell>
        <mxCell id="vIC79qj0zHftMQvDJgJ9-15" value="No" style="text;html=1;align=center;verticalAlign=middle;whiteSpace=wrap;rounded=0;" vertex="1" parent="1">
          <mxGeometry x="40" y="710" width="60" height="30" as="geometry" />
        </mxCell>
        <mxCell id="vIC79qj0zHftMQvDJgJ9-30" style="edgeStyle=orthogonalEdgeStyle;rounded=0;orthogonalLoop=1;jettySize=auto;html=1;entryX=0.5;entryY=0;entryDx=0;entryDy=0;" edge="1" parent="1" source="vIC79qj0zHftMQvDJgJ9-17" target="vIC79qj0zHftMQvDJgJ9-33">
          <mxGeometry relative="1" as="geometry">
            <mxPoint x="-40" y="930" as="targetPoint" />
            <Array as="points">
              <mxPoint x="-40" y="750" />
            </Array>
          </mxGeometry>
        </mxCell>
        <mxCell id="vIC79qj0zHftMQvDJgJ9-17" value="Text messages &amp;lt;= 100?" style="rhombus;whiteSpace=wrap;html=1;" vertex="1" parent="1">
          <mxGeometry x="114.68" y="700" width="135" height="100" as="geometry" />
        </mxCell>
        <mxCell id="vIC79qj0zHftMQvDJgJ9-35" value="" style="edgeStyle=orthogonalEdgeStyle;rounded=0;orthogonalLoop=1;jettySize=auto;html=1;" edge="1" parent="1" source="vIC79qj0zHftMQvDJgJ9-33" target="vIC79qj0zHftMQvDJgJ9-34">
          <mxGeometry relative="1" as="geometry" />
        </mxCell>
        <mxCell id="vIC79qj0zHftMQvDJgJ9-37" value="" style="edgeStyle=orthogonalEdgeStyle;rounded=0;orthogonalLoop=1;jettySize=auto;html=1;" edge="1" parent="1" source="vIC79qj0zHftMQvDJgJ9-33">
          <mxGeometry relative="1" as="geometry">
            <mxPoint x="40" y="1100" as="targetPoint" />
          </mxGeometry>
        </mxCell>
        <mxCell id="vIC79qj0zHftMQvDJgJ9-33" value="Text messages between 101 and 300?" style="rhombus;whiteSpace=wrap;html=1;" vertex="1" parent="1">
          <mxGeometry x="-127.5" y="820" width="175" height="140" as="geometry" />
        </mxCell>
        <mxCell id="vIC79qj0zHftMQvDJgJ9-65" style="edgeStyle=orthogonalEdgeStyle;rounded=0;orthogonalLoop=1;jettySize=auto;html=1;entryX=0.5;entryY=0;entryDx=0;entryDy=0;" edge="1" parent="1" source="vIC79qj0zHftMQvDJgJ9-34" target="vIC79qj0zHftMQvDJgJ9-63">
          <mxGeometry relative="1" as="geometry" />
        </mxCell>
        <mxCell id="vIC79qj0zHftMQvDJgJ9-66" style="edgeStyle=orthogonalEdgeStyle;rounded=0;orthogonalLoop=1;jettySize=auto;html=1;" edge="1" parent="1" source="vIC79qj0zHftMQvDJgJ9-34">
          <mxGeometry relative="1" as="geometry">
            <mxPoint x="-220" y="1270" as="targetPoint" />
            <Array as="points">
              <mxPoint x="-140" y="1250" />
              <mxPoint x="-219" y="1250" />
            </Array>
          </mxGeometry>
        </mxCell>
        <mxCell id="vIC79qj0zHftMQvDJgJ9-34" value="Calculate Charges for Messages &amp;gt; 300" style="rhombus;whiteSpace=wrap;html=1;" vertex="1" parent="1">
          <mxGeometry x="-220" y="1100" width="160" height="130" as="geometry" />
        </mxCell>
        <mxCell id="vIC79qj0zHftMQvDJgJ9-40" value="Yes" style="text;html=1;align=center;verticalAlign=middle;whiteSpace=wrap;rounded=0;" vertex="1" parent="1">
          <mxGeometry x="-20" y="980" width="60" height="30" as="geometry" />
        </mxCell>
        <mxCell id="vIC79qj0zHftMQvDJgJ9-41" value="No" style="text;html=1;align=center;verticalAlign=middle;whiteSpace=wrap;rounded=0;" vertex="1" parent="1">
          <mxGeometry x="-130" y="980" width="60" height="30" as="geometry" />
        </mxCell>
        <mxCell id="vIC79qj0zHftMQvDJgJ9-58" value="Input Area Code (3 digits),&amp;nbsp;&lt;div&gt;Phone Number (7 digits),&amp;nbsp;&lt;/div&gt;&lt;div&gt;Total Text Messages Sent&lt;/div&gt;" style="shape=parallelogram;perimeter=parallelogramPerimeter;whiteSpace=wrap;html=1;fixedSize=1;" vertex="1" parent="1">
          <mxGeometry x="90" y="510" width="177.82" height="120" as="geometry" />
        </mxCell>
        <mxCell id="vIC79qj0zHftMQvDJgJ9-70" style="edgeStyle=orthogonalEdgeStyle;rounded=0;orthogonalLoop=1;jettySize=auto;html=1;entryX=0.5;entryY=1;entryDx=0;entryDy=0;" edge="1" parent="1" source="vIC79qj0zHftMQvDJgJ9-59" target="vIC79qj0zHftMQvDJgJ9-67">
          <mxGeometry relative="1" as="geometry">
            <Array as="points">
              <mxPoint x="250" y="865" />
              <mxPoint x="250" y="1390" />
              <mxPoint x="-275" y="1390" />
            </Array>
          </mxGeometry>
        </mxCell>
        <mxCell id="vIC79qj0zHftMQvDJgJ9-59" value="Base Fee = $5" style="shape=parallelogram;perimeter=parallelogramPerimeter;whiteSpace=wrap;html=1;fixedSize=1;" vertex="1" parent="1">
          <mxGeometry x="280" y="830" width="170" height="70" as="geometry" />
        </mxCell>
        <mxCell id="vIC79qj0zHftMQvDJgJ9-72" style="edgeStyle=orthogonalEdgeStyle;rounded=0;orthogonalLoop=1;jettySize=auto;html=1;entryX=0.5;entryY=1;entryDx=0;entryDy=0;" edge="1" parent="1" source="vIC79qj0zHftMQvDJgJ9-63" target="vIC79qj0zHftMQvDJgJ9-67">
          <mxGeometry relative="1" as="geometry">
            <Array as="points">
              <mxPoint x="-75" y="1390" />
              <mxPoint x="-275" y="1390" />
            </Array>
          </mxGeometry>
        </mxCell>
        <mxCell id="vIC79qj0zHftMQvDJgJ9-63" value="Base Fee = $5 + (300 - 100) * $0.03 + (Total messages - 300) * $0.02)" style="shape=parallelogram;perimeter=parallelogramPerimeter;whiteSpace=wrap;html=1;fixedSize=1;" vertex="1" parent="1">
          <mxGeometry x="-170" y="1270" width="190" height="90" as="geometry" />
        </mxCell>
        <mxCell id="vIC79qj0zHftMQvDJgJ9-71" style="edgeStyle=orthogonalEdgeStyle;rounded=0;orthogonalLoop=1;jettySize=auto;html=1;entryX=0.5;entryY=1;entryDx=0;entryDy=0;" edge="1" parent="1" source="vIC79qj0zHftMQvDJgJ9-64" target="vIC79qj0zHftMQvDJgJ9-67">
          <mxGeometry relative="1" as="geometry">
            <Array as="points">
              <mxPoint x="40" y="1390" />
              <mxPoint x="-275" y="1390" />
            </Array>
          </mxGeometry>
        </mxCell>
        <mxCell id="vIC79qj0zHftMQvDJgJ9-64" value="Base Fee = $5 + (Total messages - 100) * $0.03)" style="shape=parallelogram;perimeter=parallelogramPerimeter;whiteSpace=wrap;html=1;fixedSize=1;" vertex="1" parent="1">
          <mxGeometry x="-30" y="1100" width="120" height="60" as="geometry" />
        </mxCell>
        <mxCell id="vIC79qj0zHftMQvDJgJ9-74" value="" style="edgeStyle=orthogonalEdgeStyle;rounded=0;orthogonalLoop=1;jettySize=auto;html=1;" edge="1" parent="1" source="vIC79qj0zHftMQvDJgJ9-67" target="vIC79qj0zHftMQvDJgJ9-73">
          <mxGeometry relative="1" as="geometry" />
        </mxCell>
        <mxCell id="vIC79qj0zHftMQvDJgJ9-67" value="Calculate Total Before Tax" style="rounded=0;whiteSpace=wrap;html=1;" vertex="1" parent="1">
          <mxGeometry x="-350" y="1280" width="150" height="90" as="geometry" />
        </mxCell>
        <mxCell id="vIC79qj0zHftMQvDJgJ9-68" value="yes" style="text;html=1;align=center;verticalAlign=middle;whiteSpace=wrap;rounded=0;" vertex="1" parent="1">
          <mxGeometry x="-120" y="1220" width="60" height="30" as="geometry" />
        </mxCell>
        <mxCell id="vIC79qj0zHftMQvDJgJ9-69" value="No" style="text;html=1;align=center;verticalAlign=middle;whiteSpace=wrap;rounded=0;" vertex="1" parent="1">
          <mxGeometry x="-230" y="1220" width="60" height="30" as="geometry" />
        </mxCell>
        <mxCell id="vIC79qj0zHftMQvDJgJ9-75" value="" style="edgeStyle=orthogonalEdgeStyle;rounded=0;orthogonalLoop=1;jettySize=auto;html=1;" edge="1" parent="1" source="vIC79qj0zHftMQvDJgJ9-73">
          <mxGeometry relative="1" as="geometry">
            <mxPoint x="-160" y="1495" as="targetPoint" />
          </mxGeometry>
        </mxCell>
        <mxCell id="vIC79qj0zHftMQvDJgJ9-98" value="" style="edgeStyle=orthogonalEdgeStyle;rounded=0;orthogonalLoop=1;jettySize=auto;html=1;" edge="1" parent="1" source="vIC79qj0zHftMQvDJgJ9-73" target="vIC79qj0zHftMQvDJgJ9-97">
          <mxGeometry relative="1" as="geometry" />
        </mxCell>
        <mxCell id="vIC79qj0zHftMQvDJgJ9-73" value="Apply Tax (Total with tax = Total * 1.14)" style="whiteSpace=wrap;html=1;rounded=0;" vertex="1" parent="1">
          <mxGeometry x="-335" y="1465" width="120" height="60" as="geometry" />
        </mxCell>
        <mxCell id="vIC79qj0zHftMQvDJgJ9-79" value="" style="edgeStyle=orthogonalEdgeStyle;rounded=0;orthogonalLoop=1;jettySize=auto;html=1;" edge="1" parent="1" source="vIC79qj0zHftMQvDJgJ9-76" target="vIC79qj0zHftMQvDJgJ9-78">
          <mxGeometry relative="1" as="geometry">
            <Array as="points">
              <mxPoint x="310" y="1590" />
              <mxPoint x="10" y="1590" />
            </Array>
          </mxGeometry>
        </mxCell>
        <mxCell id="vIC79qj0zHftMQvDJgJ9-76" value="Display Area Code, Phone Number, Messages, Bill Before Tax, Bill After Tax" style="shape=parallelogram;perimeter=parallelogramPerimeter;whiteSpace=wrap;html=1;fixedSize=1;" vertex="1" parent="1">
          <mxGeometry x="190" y="1455" width="240" height="75" as="geometry" />
        </mxCell>
        <mxCell id="vIC79qj0zHftMQvDJgJ9-85" style="edgeStyle=orthogonalEdgeStyle;rounded=0;orthogonalLoop=1;jettySize=auto;html=1;" edge="1" parent="1" source="vIC79qj0zHftMQvDJgJ9-78" target="vIC79qj0zHftMQvDJgJ9-58">
          <mxGeometry relative="1" as="geometry">
            <Array as="points">
              <mxPoint x="10" y="1730" />
              <mxPoint x="-380" y="1730" />
              <mxPoint x="-380" y="570" />
            </Array>
          </mxGeometry>
        </mxCell>
        <mxCell id="vIC79qj0zHftMQvDJgJ9-89" style="edgeStyle=orthogonalEdgeStyle;rounded=0;orthogonalLoop=1;jettySize=auto;html=1;entryX=0.5;entryY=0;entryDx=0;entryDy=0;" edge="1" parent="1" source="vIC79qj0zHftMQvDJgJ9-78" target="vIC79qj0zHftMQvDJgJ9-80">
          <mxGeometry relative="1" as="geometry" />
        </mxCell>
        <mxCell id="vIC79qj0zHftMQvDJgJ9-78" value="Sentinel Value Entered" style="rhombus;whiteSpace=wrap;html=1;" vertex="1" parent="1">
          <mxGeometry x="-55" y="1617.5" width="130" height="102.5" as="geometry" />
        </mxCell>
        <mxCell id="vIC79qj0zHftMQvDJgJ9-80" value="End" style="ellipse;whiteSpace=wrap;html=1;" vertex="1" parent="1">
          <mxGeometry x="150" y="1690" width="120" height="80" as="geometry" />
        </mxCell>
        <mxCell id="vIC79qj0zHftMQvDJgJ9-86" value="&lt;h3&gt;&lt;strong&gt;Messages &amp;gt; 100 Check&lt;/strong&gt;&lt;/h3&gt;" style="text;html=1;align=center;verticalAlign=middle;resizable=0;points=[];autosize=1;strokeColor=none;fillColor=none;" vertex="1" parent="1">
          <mxGeometry x="-230" y="1750" width="180" height="60" as="geometry" />
        </mxCell>
        <mxCell id="vIC79qj0zHftMQvDJgJ9-93" style="edgeStyle=orthogonalEdgeStyle;rounded=0;orthogonalLoop=1;jettySize=auto;html=1;exitX=1;exitY=0.5;exitDx=0;exitDy=0;" edge="1" parent="1" source="vIC79qj0zHftMQvDJgJ9-87">
          <mxGeometry relative="1" as="geometry">
            <mxPoint x="339" y="1540" as="targetPoint" />
            <mxPoint x="289" y="1830" as="sourcePoint" />
            <Array as="points">
              <mxPoint x="340" y="1840" />
            </Array>
          </mxGeometry>
        </mxCell>
        <mxCell id="vIC79qj0zHftMQvDJgJ9-94" style="edgeStyle=orthogonalEdgeStyle;rounded=0;orthogonalLoop=1;jettySize=auto;html=1;entryX=0;entryY=0.25;entryDx=0;entryDy=0;" edge="1" parent="1" source="vIC79qj0zHftMQvDJgJ9-87" target="vIC79qj0zHftMQvDJgJ9-58">
          <mxGeometry relative="1" as="geometry">
            <Array as="points">
              <mxPoint x="-450" y="1840" />
              <mxPoint x="-450" y="545" />
            </Array>
          </mxGeometry>
        </mxCell>
        <mxCell id="vIC79qj0zHftMQvDJgJ9-87" value="Text messages &amp;gt; 100" style="rhombus;whiteSpace=wrap;html=1;rounded=0;" vertex="1" parent="1">
          <mxGeometry x="-30" y="1800" width="80" height="80" as="geometry" />
        </mxCell>
        <mxCell id="vIC79qj0zHftMQvDJgJ9-90" value="Yes" style="text;html=1;align=center;verticalAlign=middle;resizable=0;points=[];autosize=1;strokeColor=none;fillColor=none;" vertex="1" parent="1">
          <mxGeometry x="110" y="1630" width="40" height="30" as="geometry" />
        </mxCell>
        <mxCell id="vIC79qj0zHftMQvDJgJ9-91" value="No" style="text;html=1;align=center;verticalAlign=middle;whiteSpace=wrap;rounded=0;" vertex="1" parent="1">
          <mxGeometry x="-110" y="1690" width="60" height="30" as="geometry" />
        </mxCell>
        <mxCell id="vIC79qj0zHftMQvDJgJ9-95" value="Yes" style="text;html=1;align=center;verticalAlign=middle;whiteSpace=wrap;rounded=0;" vertex="1" parent="1">
          <mxGeometry x="40" y="1800" width="60" height="30" as="geometry" />
        </mxCell>
        <mxCell id="vIC79qj0zHftMQvDJgJ9-96" value="No" style="text;html=1;align=center;verticalAlign=middle;resizable=0;points=[];autosize=1;strokeColor=none;fillColor=none;" vertex="1" parent="1">
          <mxGeometry x="-70" y="1800" width="40" height="30" as="geometry" />
        </mxCell>
        <mxCell id="vIC79qj0zHftMQvDJgJ9-102" style="edgeStyle=orthogonalEdgeStyle;rounded=0;orthogonalLoop=1;jettySize=auto;html=1;" edge="1" parent="1" source="vIC79qj0zHftMQvDJgJ9-97" target="vIC79qj0zHftMQvDJgJ9-78">
          <mxGeometry relative="1" as="geometry">
            <Array as="points">
              <mxPoint x="-350" y="1590" />
              <mxPoint x="-350" y="1669" />
            </Array>
          </mxGeometry>
        </mxCell>
        <mxCell id="vIC79qj0zHftMQvDJgJ9-97" value="Total Bill &amp;gt; $10?" style="rhombus;whiteSpace=wrap;html=1;rounded=0;" vertex="1" parent="1">
          <mxGeometry x="-315" y="1550" width="80" height="80" as="geometry" />
        </mxCell>
        <mxCell id="vIC79qj0zHftMQvDJgJ9-99" value="&lt;font style=&quot;font-size: 14px;&quot;&gt;&lt;b&gt;Total Bill &amp;gt; $10 Check&lt;/b&gt;&lt;/font&gt;" style="text;html=1;align=center;verticalAlign=middle;whiteSpace=wrap;rounded=0;" vertex="1" parent="1">
          <mxGeometry x="-270" y="1535" width="140" height="20" as="geometry" />
        </mxCell>
        <mxCell id="vIC79qj0zHftMQvDJgJ9-101" style="edgeStyle=orthogonalEdgeStyle;rounded=0;orthogonalLoop=1;jettySize=auto;html=1;entryX=0.137;entryY=1.041;entryDx=0;entryDy=0;entryPerimeter=0;" edge="1" parent="1" source="vIC79qj0zHftMQvDJgJ9-97" target="vIC79qj0zHftMQvDJgJ9-76">
          <mxGeometry relative="1" as="geometry" />
        </mxCell>
        <mxCell id="vIC79qj0zHftMQvDJgJ9-103" value="Yes" style="text;html=1;align=center;verticalAlign=middle;whiteSpace=wrap;rounded=0;" vertex="1" parent="1">
          <mxGeometry x="-230" y="1560" width="60" height="30" as="geometry" />
        </mxCell>
        <mxCell id="vIC79qj0zHftMQvDJgJ9-104" value="No" style="text;html=1;align=center;verticalAlign=middle;whiteSpace=wrap;rounded=0;" vertex="1" parent="1">
          <mxGeometry x="-375" y="1550" width="60" height="30" as="geometry" />
        </mxCell>
        <mxCell id="vIC79qj0zHftMQvDJgJ9-108" value="" style="edgeStyle=orthogonalEdgeStyle;rounded=0;orthogonalLoop=1;jettySize=auto;html=1;" edge="1" parent="1" source="vIC79qj0zHftMQvDJgJ9-106" target="vIC79qj0zHftMQvDJgJ9-107">
          <mxGeometry relative="1" as="geometry" />
        </mxCell>
        <mxCell id="vIC79qj0zHftMQvDJgJ9-106" value="Enter Area Code for Filtering" style="shape=parallelogram;perimeter=parallelogramPerimeter;whiteSpace=wrap;html=1;fixedSize=1;" vertex="1" parent="1">
          <mxGeometry x="-160" y="1460" width="140" height="65" as="geometry" />
        </mxCell>
        <mxCell id="vIC79qj0zHftMQvDJgJ9-109" style="edgeStyle=orthogonalEdgeStyle;rounded=0;orthogonalLoop=1;jettySize=auto;html=1;exitX=0.5;exitY=1;exitDx=0;exitDy=0;" edge="1" parent="1" source="vIC79qj0zHftMQvDJgJ9-107">
          <mxGeometry relative="1" as="geometry">
            <mxPoint x="10" y="1590" as="targetPoint" />
            <Array as="points">
              <mxPoint x="72" y="1560" />
              <mxPoint x="10" y="1560" />
            </Array>
          </mxGeometry>
        </mxCell>
        <mxCell id="vIC79qj0zHftMQvDJgJ9-110" value="" style="edgeStyle=orthogonalEdgeStyle;rounded=0;orthogonalLoop=1;jettySize=auto;html=1;" edge="1" parent="1" source="vIC79qj0zHftMQvDJgJ9-107">
          <mxGeometry relative="1" as="geometry">
            <mxPoint x="190" y="1510" as="targetPoint" />
            <Array as="points">
              <mxPoint x="72" y="1560" />
              <mxPoint x="136" y="1560" />
              <mxPoint x="136" y="1510" />
              <mxPoint x="190" y="1510" />
            </Array>
          </mxGeometry>
        </mxCell>
        <mxCell id="vIC79qj0zHftMQvDJgJ9-107" value="Does&amp;nbsp;&lt;div&gt;Customer’s Area Code Match?&lt;/div&gt;" style="rhombus;whiteSpace=wrap;html=1;" vertex="1" parent="1">
          <mxGeometry x="10" y="1447.5" width="123.91" height="90" as="geometry" />
        </mxCell>
        <mxCell id="vIC79qj0zHftMQvDJgJ9-111" value="No" style="text;html=1;align=center;verticalAlign=middle;whiteSpace=wrap;rounded=0;" vertex="1" parent="1">
          <mxGeometry y="1530" width="60" height="30" as="geometry" />
        </mxCell>
        <mxCell id="vIC79qj0zHftMQvDJgJ9-112" value="Yes" style="text;html=1;align=center;verticalAlign=middle;whiteSpace=wrap;rounded=0;" vertex="1" parent="1">
          <mxGeometry x="73.91" y="1530" width="60" height="30" as="geometry" />
        </mxCell>
        <mxCell id="vIC79qj0zHftMQvDJgJ9-113" value="&lt;font style=&quot;font-size: 14px;&quot;&gt;&lt;b&gt;Display all data until Sentinel Value is Entered&lt;/b&gt;&lt;/font&gt;" style="text;html=1;align=center;verticalAlign=middle;resizable=0;points=[];autosize=1;strokeColor=none;fillColor=none;" vertex="1" parent="1">
          <mxGeometry x="-200" y="1587.5" width="330" height="30" as="geometry" />
        </mxCell>
        <mxCell id="vIC79qj0zHftMQvDJgJ9-115" value="&lt;font style=&quot;font-size: 14px;&quot;&gt;&lt;b&gt;Collect customer data&lt;/b&gt;&lt;/font&gt;" style="text;html=1;align=center;verticalAlign=middle;resizable=0;points=[];autosize=1;strokeColor=none;fillColor=none;" vertex="1" parent="1">
          <mxGeometry x="-125" y="510" width="170" height="30" as="geometry" />
        </mxCell>
        <mxCell id="vIC79qj0zHftMQvDJgJ9-116" value="&lt;b&gt;&lt;font style=&quot;font-size: 14px;&quot;&gt;Fee Calculation:&lt;/font&gt;&lt;/b&gt;" style="text;html=1;align=center;verticalAlign=middle;whiteSpace=wrap;rounded=0;" vertex="1" parent="1">
          <mxGeometry x="32.5" y="650" width="117.5" height="30" as="geometry" />
        </mxCell>
      </root>
    </mxGraphModel>
  </diagram>
</mxfile>
